<svg width="12" height="12" viewBox="0 0 12 12" fill="none" xmlns="http://www.w3.org/2000/svg">
<path d="M7.08889 6L11.1649 1.92398C11.2385 1.85295 11.2971 1.76797 11.3375 1.67402C11.3778 1.58007 11.3991 1.47902 11.4 1.37677C11.4009 1.27452 11.3814 1.17311 11.3427 1.07848C11.3039 0.983836 11.2468 0.897855 11.1745 0.82555C11.1021 0.753246 11.0162 0.696065 10.9215 0.657345C10.8269 0.618625 10.7255 0.599141 10.6232 0.600029C10.521 0.600918 10.4199 0.622162 10.326 0.66252C10.232 0.702879 10.1471 0.761546 10.076 0.835096L6.00001 4.91111L1.92399 0.835096C1.77875 0.69482 1.58423 0.6172 1.38232 0.618955C1.18041 0.62071 0.987261 0.701698 0.844482 0.844476C0.701704 0.987255 0.620715 1.1804 0.618961 1.38231C0.617206 1.58422 0.694826 1.77875 0.835102 1.92398L4.91112 6L0.835102 10.076C0.761551 10.1471 0.702885 10.232 0.662526 10.326C0.622167 10.4199 0.600924 10.521 0.600035 10.6232C0.599147 10.7255 0.618631 10.8269 0.657351 10.9215C0.696071 11.0162 0.753252 11.1021 0.825556 11.1744C0.897861 11.2468 0.983841 11.3039 1.07848 11.3427C1.17312 11.3814 1.27452 11.4009 1.37677 11.4C1.47902 11.3991 1.58007 11.3778 1.67403 11.3375C1.76798 11.2971 1.85295 11.2385 1.92399 11.1649L6.00001 7.08889L10.076 11.1649C10.2213 11.3052 10.4158 11.3828 10.6177 11.381C10.8196 11.3793 11.0127 11.2983 11.1555 11.1555C11.2983 11.0127 11.3793 10.8196 11.3811 10.6177C11.3828 10.4158 11.3052 10.2213 11.1649 10.076L7.08889 6Z" fill="#9E1C15"/>
</svg>
