<svg width="12" height="10" viewBox="0 0 12 10" fill="none" xmlns="http://www.w3.org/2000/svg">
<path d="M6 0.5C2.7672 0.5 0 3.93029 0 5C0 6.11986 2.1276 9.5 6 9.5C9.8724 9.5 12 6.11986 12 5C12 3.93029 9.2328 0.5 6 0.5ZM6 6.92857C5.64399 6.92857 5.29598 6.81546 4.99997 6.60355C4.70397 6.39163 4.47325 6.09043 4.33702 5.73803C4.20078 5.38563 4.16513 4.99786 4.23459 4.62375C4.30404 4.24965 4.47547 3.90601 4.72721 3.63629C4.97894 3.36658 5.29967 3.1829 5.64884 3.10849C5.998 3.03407 6.35992 3.07226 6.68883 3.21823C7.01774 3.3642 7.29886 3.61139 7.49665 3.92854C7.69443 4.24569 7.8 4.61856 7.8 5C7.8 5.51149 7.61036 6.00203 7.27279 6.36371C6.93523 6.72538 6.47739 6.92857 6 6.92857Z" fill="white"/>
</svg>
